<?xml version="1.0" encoding="UTF-8"?>
<svg version="1.1" viewBox="0 0 2000 2000" width="1280" height="1280" xmlns="http://www.w3.org/2000/svg">
<path transform="translate(646)" d="m0 0h145l10 7 7 8 3 5 1 4 1 163h686l12 2 10 6 6 8 4 10 20 99 12 60 1 2 66 1 11 4 8 7 6 10 1 5v99h35l9 2 10 7 6 9 2 5 1 6v185l-1 12-4 9-7 8-6 4-6 2-7 1h-66l-1 14-11 112-10 98-10 102-10 98-9 92-9 90-10 98-4 40v6l23 4 21 6 13 5 17 8 14 9 12 9 14 12 7 7 9 11 11 15 10 18 8 18 7 23 3 12 25 6 19 7 16 8 12 7 11 8 11 9 12 11 12 14 11 16 10 18 10 25 6 25v4l15 3 19 7 16 8 15 10 13 11 13 13 11 15 8 13 7 16 7 21 4 19v27l-6 9-5 6-13 7h-141l-13-8-6-8-4-13v-2l-61 1-4 12-7 10-10 6-4 2h-1702l-13-7-7-8-4-8v-29l6-24 7-19 9-17 8-12 9-11 9-10 11-9 12-9 16-9 17-7 13-4 10-2 3-16 6-20 8-19 10-18 13-18 11-12 12-12 20-15 17-10 24-10 22-6 9-2 3-9 7-25 8-18 8-15 12-17 9-11 17-17 19-14 13-8 16-8 19-7 25-6 17-2-4-35-16-155-5-47-15-147-26-252-1-9v-19l6-12 8-7 12-5-1-14-5-46-2-1-98-1-11-4-8-6-6-10-2-7v-197l4-11 7-8 10-6 4-1h37v-90l2-15 6-9 9-8 8-3 68-1 8-38 24-120 4-12 4-6 8-7 7-3 7-1h127v-163l4-9 7-8z" fill="#010001"/>
<path transform="translate(979,941)" d="m0 0h40l35 4 25 5 12 3 33 11 27 12 21 11 19 12 14 10 14 11 10 9 8 7 19 19 9 11 12 15 13 19 9 14 16 32 6 16 3 7 6 18 4 17 4 15 4 24 2 21v43l-2 22-4 23-6 25-7 22-4 11-5 12-12 25-12 21-7 10-9 13-7 9-1 2h-2l-2 4-9 10-7 8-12 12-8 7-13 11-16 12-20 13-25 14-17 8-20 8-22 7-24 6-30 5-23 2h-36l-31-3-27-5-26-7-20-7-20-8-16-8-15-8-18-11-15-11-13-10-16-15-13-12-7-8-11-12-10-13-13-19-8-13-8-14-8-16-10-24-8-24-6-24-4-22-3-26v-50l4-32 6-27 2-5 4-16 6-17 4-8 6-16 3-4 3-7 11-20 12-18 11-15 14-17 11-12 11-11 8-7 14-12 16-12 22-14 18-10 25-12 12-4 7-3 18-6 24-6 23-4z" fill="#DCC1A9"/>
<path transform="translate(406,750)" d="m0 0h1152l1 1-1 15-10 98-3 31-2 16-3 34-2 20-3 26-2 24-2 16-2 25-1 4-2 26-16 161-1 2h-104l-1-1-3-26-3-14-3-17-3-12-3-9-5-16-3-10-4-9-5-13-7-15-11-21-15-24-12-17-10-13-9-11-10-11-7-8-13-13-8-7-15-13-19-14-21-14-22-13-24-12-22-9-12-5-15-5-14-4-39-8-3-1-28-3-14-1h-53l-26 3-33 6-27 7-18 6-16 6-16 7-25 12-27 16-16 11-12 9-10 8-14 12-15 14-11 11-7 8-12 14-10 13-6 9h-2l-2 5-11 17-6 11-7 12-11 23-8 20-4 11-6 19-2 5-8 38-5 35-1 1h-103l-3-25-1-16-2-13-2-26-2-13-4-38-1-17-2-13-2-26-1-3-1-17-1-2-2-27-2-13-1-15-2-14-3-29-1-15-2-14-1-15-2-14-2-25-2-12-1-11-4-9-7-8-7-4-16-3-3-24-4-36z" fill="#EAD291"/>
<path transform="translate(1501,1312)" d="m0 0 2 1-1 17-6 58-14 143-13 128-13 126-3 26-832 1h-69l-2-3-13-124-24-233-13-129v-10h95l4 34 5 27 8 30 8 24 9 21 12 25 14 25 15 22 9 12 11 14 12 13v2h2l7 8 14 14 11 9 10 9 12 9 17 12 18 11 18 10 16 8 18 8 26 10 28 8 28 6 27 4 23 2h46l38-4 31-6 26-7 27-9 30-13 25-13 26-16 15-11 13-10 13-11 10-9 24-24 9-11 11-13 10-14 12-18 10-17 12-23 9-19 10-27 8-26 6-27 6-39 1-10z" fill="#E7A54C"/>
<path transform="translate(1e3 1051)" d="m0 0h54l7 1 7 2 26 6 29 12 16 9 17 12 11 8 9 7 20 28 9 14 8 17 5 11 4 14 4 17 3 17 1 13v30l-2 25-2 5-4 18-8 27h-2l-1 6-4 9-8 17-14 22-12 16-8 10-14 15-10 10h-2l-1 3-11 9-18 13-20 12h-2v2l-19 9-11 5-25 8-21 5-2 1-25 3h-38l-23-3-21-5-18-6-9-4-16-8-14-9-13-10-12-11-10-10-12-16-7-10-6-11-8-16-8-25-2-5-4-26-1-12v-31l3-26 5-23 8-24 1-5h2l1-7 8-16 7-13 10-15 3-5 3-4h2l2-6h2l1-4 14-14 2-4 8-7 6-7 9-7 15-12 13-9 20-12 17-8 8-4 14-5 13-4 21-5 19-3z" fill="#010001"/>
<path transform="translate(344,562)" d="m0 0 61 1h1251v123l-1 1h-1311z" fill="#565F5D"/>
<path transform="translate(527,250)" d="m0 0h80l103 1 172-1h537l55 1 1 1 8 44 12 59 4 18v1h-998l1-8 5-23 15-75 4-17z" fill="#3F4A4A"/>
<path transform="translate(1542,1562)" d="m0 0 24 5 20 8 12 7 13 9v2l4 2 12 12v2h2l10 14 10 21 6 22 2 22 3 12 6 8 9 6 6 2 27 3 19 5 17 7 17 11 10 8 14 14 9 13 9 17 5 15 3 14 2 24 3 10 5 8 9 6 12 3 23 3 15 5 13 7 11 8 13 13 10 15 5 11v1l-93 1-10 3-10 9-5 10-2 9h-61l-6-16-6-8-6-4-6-2-23-1-202-1 2-12 3-20 6-65 8-85 13-129 6-58z" fill="#A2806E"/>
<path transform="translate(458,1562)" d="m0 0 4 1 4 35 17 167 6 60 6 64 4 32 3 16h-434l2-6 9-16 11-13 10-9 13-8 14-6 14-3 23-3 10-4 5-4 5-8 3-11 1-17 4-21 7-19 9-16 9-12 14-14 15-11 16-8 16-6 19-4 25-3 10-5 6-7 4-10 2-18 3-17 5-16 9-19 10-14 9-10 7-7 15-11 15-8 17-6 18-4z" fill="#A2806E"/>
<path transform="translate(344,562)" d="m0 0 4 1h-3l1 98 2-1 2-16 4-15 1-2 4-1h23l16-1 8 1h83l16-1h1141l4 1v10l1 12v17l-1 14v5l5 2v1h-1311z" fill="#4A5454"/>
<path transform="translate(407,437)" d="m0 0 1185 1 1 1v60h-1187v-61z" fill="#4A5454"/>
<path transform="translate(406,750)" d="m0 0h1152l1 1-1 15-5 49-2-4-4 2h-1104l-19-2-5-2-4-6-2-5-5-46z" fill="#F1CB68"/>
<path transform="translate(557,1875)" d="m0 0h890l-1 14-2 18-3 12-5 8-8 6-6 3-4 1h-834l-10-5-7-6-5-9-3-16-2-19z" fill="#CCA381"/>
<path transform="translate(1338,1342)" d="m0 0h1l-1 10-6 25-7 22-4 11-5 12-12 25-12 21-7 10-9 13-7 9-1 2h-2l-2 4-9 10-7 8-12 12-8 7-13 11-16 12-20 13-25 14-17 8-20 8-22 7-24 6-30 5-23 2h-36l-31-3-27-5-26-7-20-7-20-8-16-8-15-8-18-11-15-11-13-10-16-15-13-12-7-8-11-12-10-13-13-19-8-13-8-14-8-16-10-24-8-24-5-20v-4l3 1 2 9 5 5 6 12 8 11 7 11 14 18 11 13 7 8 19 19 11 9 12 10 12 9 15 10 25 15 23 11 24 10 27 9 19 5 26 5 23 3 31 2h15l30-2 33-5 30-7 33-11 15-6 16-8 17-9 9-5 17-11 18-13 13-10 13-12 8-7 15-15 7-8 13-16 12-17 13-20 7-14 2-3 4-8 3-12z" fill="#CCA380"/>
<path transform="translate(1024,1112)" d="m0 0h16l23 3 15 4 13 5 9 5-3 3-10 6-25 17-13 10-14 12-14 14-8 10-9 12-11 17-9 17-16 40-8 16-10 16-9 11-11 12-11 10-18 13-26 17-15 10-8 5-3-1-9-17-7-19-4-19-2-19v-10l2-23 5-22 7-21 12-25 14-21 11-14 15-16 8-7 11-9 16-11 14-8 21-10 18-6 23-5z" fill="#A1806E"/>
<path transform="translate(1147,1172)" d="m0 0 3 1 9 16 8 21 5 25 1 12v11l-2 24-6 24-8 22-8 16-8 14-9 13-10 13-8 8-6 7-8 7-16 13-19 12-19 10-25 9-21 5-13 2h-36l-18-3-19-6-14-6 2-4 14-10 27-18 16-12 16-15 10-10 9-11 12-17 10-17 10-21 12-31 11-21 14-19 12-13 10-9 12-9 24-16z" fill="#A2806E"/>
<path transform="translate(1832,1873)" d="m0 0 20 2 17 3 15 6 14 8 12 11 7 7 10 15 5 11v1l-93 1-10 3-10 9-5 10-2 9h-61l-6-16-6-8-6-4-6-2-23-1-202-1 2-12 3-20 2-19 3-5 1-5 26-1h91l202-1z" fill="#8A6C5D"/>
<path transform="translate(491,1859)" d="m0 0h1l5 48 4 25 1 5h-434l2-6 9-16 11-13 10-9 13-8 14-6 14-3 23-3 7-1 3 2 318 1-1-5z" fill="#8A6C5E"/>
<path transform="translate(1166,1210)" d="m0 0 2 4 4 21 1 12v11l-2 24-6 24-8 22-8 16-8 14-9 13-10 13-8 8-6 7-8 7-16 13-19 12-19 10-25 9-21 5-13 2h-36l-18-3-19-6-14-6 2-4 14-10 27-18 4-3 3 1 10-1h12l20-2 23-4 26-8 16-6 19-9 10-6 8-5 10-7 16-12 15-15h2l2-5h2l2-4 3-4h2l2-5 7-9 5-5 4-9 2-13 2-10v-30l-4-24z" fill="#896C5D"/>
<path transform="translate(689,62)" d="m0 0 60 1 1 122-1 2h-61v-124z" fill="#565F5D"/>
<path transform="translate(1551,806)" d="m0 0h1v19l-5 46-3 34-2 20-3 26-3 34-2 21-2 13-3 37-1 4-2 26-16 161-1 2h-104l-1-1-3-26-3-14-3-17-3-12-3-9-5-16-3-10-4-9-5-13-7-15-11-21-15-24-12-17-10-13-9-11-10-11-7-8-13-13-8-7-15-13-19-14-21-14-22-13-24-12-22-9-12-5-15-5-14-4-2-1v-2l7-1v2h5l12 4 7 1h3l1 2 4 2 1-1 13 4 3 2 6 2 15 6 24 12 15 9 15 10 8 6 6 4 7 6 5 3 10 9 2 1v2h2v2l4 2 13 12 7 8v2l4 2v2h2l8 10v2h2l1 5h2l1 4 3 1v3l4 2 9 15 8 11 5 8 5 9 3 5 12 21 8 17 5 11 3 6 3 9 10 29 6 21 3 14 3 16 2 13 3 3 4 2 12 1h16l44-1 10-3 2-6 2-25 4-24v-11l2-17 3-8v-16l2-20 2-5v-17l1-8 1-11 1-7v-11l2-17 2-26 3-26 1-17 2-15 2-29 2-11 2-29 2-13 2-28 2-14 1-14 1-2h5z" fill="#F1DA92"/>
<path transform="translate(414,802)" d="m0 0 5 5 1 2 16 2 10 1h5l-3 4 2 5v4h2l1 6h2l3 13 3 15 1 26 2 9 1 11v16l2 10 2 7v20l1 9 2 6 1 9 1 24 1 2 1 11v19l2 11v2l1 7v18l1 7-1 1 1 3 2 1v3l1 16v17l3 7 2 24h-2v3h2l3 9 2 16v8l3 20 1 20 3 9 3 1v2l4 1 5 2-2 2h-17l-2-13-1-1-2-26-2-13-2-26-2-13-4-38-1-17-2-13-2-26-1-3-1-17-1-2-2-27-2-13-1-15-2-14-3-29-1-15-2-14-1-15-2-14-2-25-2-12-1-11-4-9-7-8-7-4-16-3z" fill="#EDD790"/>
<path transform="translate(990,873)" d="m0 0h19l2 2 5 1 16 1 5 1v1l-68 1-26 3-33 6-27 7-18 6-16 6-16 7-25 12-27 16-16 11-12 9-10 8-14 12-15 14-11 11-7 8-12 14-10 13-6 9h-2l-2 5-2 2-2-4 1-4h2v-3h2l2-4 5-9h2l2-4 6-7 4-7 7-9 6-5 5-5 4-5h2l2-4h2v-2l7-6 1-2h2v-2h2v-2h2v-2l4-1v-2l7-5h2l1-3 17-12 5-4 7-4 9-6 5-2v-2l12-6 11-6 16-8 21-9 16-6 12-4 8-3 9-3 11-2 6-2 13-2 3-2 14-1 13-3h20l2 1h17l-2-2z" fill="#F1DA92"/>
<path transform="translate(832,1275)" d="m0 0h1l-1 11-2 15v28l3 18 8 6v2l3 1v2l5 2 6 7 17 10 1 5-5 5-11 7-5 3-3-1-9-17-7-19-4-19-2-19v-10l2-23z" fill="#856A5D"/>
<path transform="translate(527,250)" d="m0 0 6 1-1 6h-3l1 3-1 8-1 3-3 16-2 14-2 6-2 14-2 7-2 12-4 10-2 6-3-1v-7l16-80 4-17z" fill="#4A5454"/>
<path transform="translate(1708,1722)" d="m0 0h11l14 4 16 8 12 8 10 8 14 14 9 13 9 17v6l-3-4-6-12-2-1v-3h-3v-2h-2v-3l-7-7-5-4-7-8-9-8-6-4-3-3-16-8-3-2-9-3-4-2-10-3z" fill="#C39C7C"/>
<path transform="translate(1542,1564)" d="m0 0h10l17 4 17 7 12 7 13 9v2l4 2 12 12v2h2l10 14 5 10-1 4-6-10-1-3-4-1-2-1-2-5-1-3-4-2v-2h-3l-1-4h-3l-1-4h-3l-5-5v-2l-6-3v-2h-2v-2l-6-2-6-4v-2l-9-3-2-2-10-3-1-1-7-1v-2l-13-1-2 1z" fill="#BE997A"/>
<path transform="translate(1470,251)" d="m0 0 5 1 8 44 11 53v8l-2-2-2-6-2-12v-5l-3-1v-7l-1-5-3-11-1-9-2-4-2-19-3-14v-2h-2l-2-4z" fill="#495353"/>
<path transform="translate(1587,439)" d="m0 0h6v60l-6-1-2-1 2-10 2-3v-34l-1-6 1-4z" fill="#515B59"/>
<path transform="translate(660,1227)" d="m0 0h1v11l-2 26v39l1 11v21h-1l-3-26v-50z" fill="#A1846E"/>
<path transform="translate(990,873)" d="m0 0h19l2 2 5 1 16 1 5 1v1h-28l-21-1 1-2-2-2z" fill="#F6DE93"/>
<path transform="translate(1552,751)" d="m0 0h7l-1 15-2 18-2 6h-1v-29l-1-2z" fill="#EACF85"/>
<path transform="translate(1166,1210)" d="m0 0 2 4 4 21 1 12v11l-2 24-4 17-2-4 3-16 2-10v-30l-4-24z" fill="#6F6158"/>
<path transform="translate(1067,882)" d="m0 0h9l1 1 11 2 7 1 7 2 2 4-8-1-29-6z" fill="#E1CA8A"/>
<path transform="translate(594,1227)" d="m0 0h1v17l-3 3-6-2 4-12 1-5z" fill="#F9E395"/>
<path transform="translate(1343,1264)" d="m0 0h1v43l-2 22-1 6h-1v-19l1-5 1-14z" fill="#8D7867"/>
<path transform="translate(1882,1885)" d="m0 0 6 1 11 7 10 9 8 8 4 6-1 3-7-9-9-9-4-3v-2l-5-2-9-6-4-2z" fill="#8F7668"/>
<path transform="translate(1039,877)" d="m0 0h10l2 1v2h7l2 1v2l-16-1-22-2v-1l15-1z" fill="#D4BE85"/>
<path transform="translate(690,64)" d="m0 0h2v6l-1 4v20l-1 32h-1v-61z" fill="#8B6D5E"/>
<path transform="translate(458,1562)" d="m0 0 4 1 4 35v8l-2-2-3-33-1-6-8-1v-1z" fill="#696059"/>
<path transform="translate(1365,1105)" d="m0 0h2l12 27 2 5v6l-2-2-4-12-7-15z" fill="#F1E6D1"/>
<path transform="translate(747,63)" d="m0 0h2l-1 60h-1l-1-16 1-42-2-1z" fill="#8A6C5E"/>
<path transform="translate(344,1691)" d="m0 0 3 1-2 8h-2l-1 4h-2l-3 6h-2l1-4 5-10z" fill="#B89478"/>
<path transform="translate(657,1303)" d="m0 0h2l1 11v21h-1l-2-14z" fill="#A58770"/>
<path transform="translate(488,1842)" d="m0 0h1l2 7 1 26h-3v-15l-1-5z" fill="#BF997A"/>
<path transform="translate(603,1184)" d="m0 0h2v9l-2 4-4 1v-8l1-4z" fill="#F0D990"/>
<path transform="translate(92,1900)" d="m0 0 2 1-5 7h-2l-2 5-5 7h-2l1-5 11-13z" fill="#927869"/>
<path transform="translate(1511,1884)" d="m0 0h1l-1 13-1 15h-2v-18l1-8z" fill="#917668"/>
<path transform="translate(1166,1210)" d="m0 0 2 4 4 21v7l-2-3-4-24z" fill="#6B6159"/>
<path transform="translate(607,1169)" d="m0 0h2l-1 12h-2l-1 2-1-2v-8z" fill="#EED78F"/>
<path transform="translate(597,1203)" d="m0 0 3 1-1 12-3-1-2-5z" fill="#F9E395"/>
<path transform="translate(661,1057)" d="m0 0 1 3-8 13-2-3 1-3h2l-1-3 5-5z" fill="#E6CC8C"/>
<path transform="translate(1907,1901)" d="m0 0 7 6 7 9-1 3-7-9-4-4z" fill="#967A6A"/>
<path transform="translate(563,1914)" d="m0 0 2 2 3 7 9 9-4-1-6-5-4-7z" fill="#D4BA87"/>
<path transform="translate(458,1562)" d="m0 0 4 1 2 19-2-2-2-15-8-1v-1z" fill="#655D56"/>
<path transform="translate(1338,1342)" d="m0 0h1l-1 10h-2l-1 6-1-3 3-12z" fill="#B19075"/>
<path transform="translate(1505,1927)" d="m0 0 1 4 3 1v4h-7z" fill="#9C7D6B"/>
<path transform="translate(1796,1786)" d="m0 0h3l4 8v6l-3-4-4-8z" fill="#B39277"/>
<path transform="translate(1019,1190)" d="m0 0 2 1-8 10h-3l2-4 5-5h2z" fill="#79665A"/>
<path transform="translate(1374,1125)" d="m0 0h2l5 12v6l-2-2-4-12z" fill="#E0D1BA"/>
<path transform="translate(209,1775)" d="m0 0 2 1-6 9h-2l1-5z" fill="#BD987A"/>
<path transform="translate(611,1159)" d="m0 0 2 1-1 7-3 1-1-6z" fill="#E1C788"/>
<path transform="translate(1554,787)" d="m0 0h1l-1 18h-1l-1-14z" fill="#C9AA6D"/>
<path transform="translate(1507,1905)" d="m0 0h1l1 9-2 9h-1v-10z" fill="#826E62"/>
<path transform="translate(76,1923)" d="m0 0v3 4l-2 2h-3l1-5z" fill="#947868"/>
</svg>
